<svg width="107" height="107" viewBox="0 0 107 107" fill="none" xmlns="http://www.w3.org/2000/svg">
<g clip-path="url(#clip0_66_1720)">
<path d="M82.362 0H24.638C11.0308 0 0 11.0308 0 24.638V82.362C0 95.9692 11.0308 107 24.638 107H82.362C95.9692 107 107 95.9692 107 82.362V24.638C107 11.0308 95.9692 0 82.362 0Z" fill="url(#paint0_linear_66_1720)"/>
<g clip-path="url(#clip1_66_1720)">
<path d="M84.8974 24.7881L77.1383 17.0869C75.792 15.7507 73.9662 15 72.0623 15L46.3214 15C42.3568 15 39.1429 18.1899 39.1429 22.125V29.25H27.1786C23.2139 29.25 20 32.4399 20 36.375V83.875C20 87.8101 23.2139 91 27.1786 91H60.6786C64.6432 91 67.8571 87.8101 67.8571 83.875V76.75H79.8214C83.7861 76.75 87 73.5601 87 69.625V29.8262C87 27.9366 86.2437 26.1243 84.8974 24.7881ZM59.7812 83.875H28.0759C27.8379 83.875 27.6097 83.7812 27.4414 83.6141C27.2731 83.4471 27.1786 83.2206 27.1786 82.9844V37.2656C27.1786 37.0294 27.2731 36.8029 27.4414 36.6359C27.6097 36.4688 27.8379 36.375 28.0759 36.375H39.1429V69.625C39.1429 73.5601 42.3568 76.75 46.3214 76.75H60.6786V82.9844C60.6786 83.2206 60.584 83.4471 60.4158 83.6141C60.2475 83.7812 60.0192 83.875 59.7812 83.875ZM78.9241 69.625H47.2188C46.9808 69.625 46.7525 69.5312 46.5842 69.3641C46.416 69.1971 46.3214 68.9706 46.3214 68.7344V23.0156C46.3214 22.7794 46.416 22.5529 46.5842 22.3859C46.7525 22.2188 46.9808 22.125 47.2188 22.125H63.0714V35.1875C63.0714 37.155 64.6784 38.75 66.6607 38.75H79.8214V68.7344C79.8214 68.9706 79.7269 69.1971 79.5586 69.3641C79.3903 69.5312 79.1621 69.625 78.9241 69.625ZM79.8214 31.625H70.25V22.125H71.6905C71.9284 22.125 72.1567 22.2188 72.3251 22.3858L79.5587 29.5654C79.642 29.6481 79.7081 29.7463 79.7532 29.8544C79.7982 29.9625 79.8214 30.0783 79.8214 30.1952V31.625Z" fill="#212226"/>
</g>
</g>
<defs>
<linearGradient id="paint0_linear_66_1720" x1="102.999" y1="5.43386" x2="16.6685" y2="112.521" gradientUnits="userSpaceOnUse">
<stop stop-color="#3C6FDB"/>
<stop offset="1" stop-color="#9CDAED"/>
</linearGradient>
<clipPath id="clip0_66_1720">
<rect width="107" height="107" fill="white"/>
</clipPath>
<clipPath id="clip1_66_1720">
<rect width="67" height="76" fill="white" transform="translate(20 15)"/>
</clipPath>
</defs>
</svg>
